#!OML:ASF F:\VICON\USERDATA\INSTALL\rory3\rory3.ASF
:FULLY-SPECIFIED
:DEGREES
2763
root -2.88665 17.6771 1.73948 4.19861 3.13539 0.84028
lowerback 1.79885 -0.775798 -4.23194
upperback 0.278266 -1.10019 2.18138
thorax -0.599987 -0.541579 4.6518
lowerneck -21.6114 -0.190655 -9.90287
upperneck 21.5094 2.32313 2.89834
head 10.3254 0.599583 3.01635
rclavicle 4.52235e-015 -1.55052e-014
rhumerus -52.9587 -34.3363 14.536
rradius 41.4799
rwrist 29.6377
rhand -21.3724 -9.27534
rfingers 7.12502
rthumb 5.01482 -39.196
lclavicle 4.52235e-015 -1.55052e-014
lhumerus -50.7007 31.9641 -12.3026
lradius 37.1884
lwrist -11.1421
lhand -20.0393 24.7243
lfingers 7.12502
lthumb 6.30189 54.6105
rfemur -12.4383 0.32019 12.8547
rtibia 32.0434
rfoot -21.9339 -5.94427
rtoes 7.86785
lfemur -10.3059 -3.20926 -16.6275
ltibia 27.2588
lfoot -16.746 5.25945
ltoes -19.9081
2764
root -2.87984 17.6749 1.73803 4.1495 3.06819 0.84977
lowerback 1.78896 -0.760717 -4.18007
upperback 0.214276 -1.07932 2.14536
thorax -0.664328 -0.528216 4.58499
lowerneck -21.3705 -0.126204 -9.80618
upperneck 21.7277 2.39676 2.74557
head 10.3594 0.614668 2.95807
rclavicle -2.68359e-014 4.77083e-015
rhumerus -51.3722 -34.8413 15.5291
rradius 41.5315
rwrist 29.8912
rhand -21.4922 -8.98483
rfingers 7.12502
rthumb 4.89913 -38.9082
lclavicle -2.68359e-014 4.77083e-015
lhumerus -49.0323 32.19 -13.1341
lradius 37.5955
lwrist -11.0819
lhand -19.9288 24.65
lfingers 7.12502
lthumb 6.40857 54.5331
rfemur -12.408 0.432253 12.8163
rtibia 32.0552
rfoot -21.9508 -6.01858
rtoes 7.47816
lfemur -10.2502 -3.06204 -16.6663
ltibia 27.2882
lfoot -16.7403 5.17932
ltoes -19.9008
2765
root -2.8723 17.6728 1.7348 4.168 2.98288 0.953179
lowerback 1.70197 -0.744128 -4.23015
upperback 0.155802 -1.05568 2.09706
thorax -0.678348 -0.514699 4.56182
lowerneck -21.2106 -0.0494341 -9.78198
upperneck 21.9245 2.4988 2.67999
head 10.396 0.648436 2.94763
rclavicle -1.87852e-014 6.36111e-015
rhumerus -49.6432 -35.2962 16.2756
rradius 41.7621
rwrist 29.7198
rhand -21.5439 -8.85882
rfingers 7.12502
rthumb 4.84915 -38.7833
lclavicle -1.87852e-014 6.36111e-015
lhumerus -47.3102 32.7209 -13.921
lradius 37.9486
lwrist -11.3469
lhand -20.0162 24.9646
lfingers 7.12502
lthumb 6.32416 54.8502
rfemur -12.466 0.386427 12.655
rtibia 32.0885
rfoot -21.8475 -6.02189
rtoes 6.64488
lfemur -10.2661 -2.89368 -16.8129
ltibia 27.3254
lfoot -16.7806 5.13016
ltoes -20.0446
2766
root -2.86589 17.6705 1.73032 4.16198 2.85944 1.02538
lowerback 1.64362 -0.7138 -4.28329
upperback 0.100386 -1.0146 2.07036
thorax -0.706768 -0.492089 4.56304
lowerneck -21.1297 0.0227853 -9.85874
upperneck 22.1894 2.61527 2.7061
head 10.4682 0.689119 2.99163
rclavicle -2.16675e-014 1.47101e-014
rhumerus -47.7598 -35.7718 16.7664
rradius 41.9635
rwrist 29.538
rhand -21.7318 -9.10071
rfingers 7.12502
rthumb 4.66774 -39.0293
lclavicle -2.16675e-014 1.47101e-014
lhumerus -45.5213 33.4941 -14.646
lradius 38.2305
lwrist -11.7088
lhand -20.0338 24.7888
lfingers 7.12502
lthumb 6.30721 54.6749
rfemur -12.5232 0.342292 12.5328
rtibia 32.1329
rfoot -21.764 -5.897
rtoes 6.80297
lfemur -10.261 -2.78037 -16.9296
ltibia 27.3686
lfoot -16.8386 5.1492
ltoes -20.1642
2767
root -2.86155 17.6684 1.72583 4.07185 2.74188 1.00628
lowerback 1.68264 -0.677678 -4.26469
upperback 0.0463378 -0.967905 2.06748
thorax -0.789846 -0.465454 4.5498
lowerneck -20.9987 0.0776935 -9.87007
upperneck 22.4633 2.70362 2.64405
head 10.5394 0.710843 2.98863
rclavicle 1.8487e-014 -8.34896e-015
rhumerus -45.7546 -36.3053 17.0918
rradius 42.0442
rwrist 29.6195
rhand -21.9032 -9.19194
rfingers 7.12502
rthumb 4.50227 -39.1241
lclavicle 1.8487e-014 -8.34896e-015
lhumerus -43.5305 34.0474 -15.0224
lradius 38.5403
lwrist -11.4854
lhand -20.5353 24.756
lfingers 7.12502
lthumb 5.82303 54.656
rfemur -12.4946 0.434247 12.5304
rtibia 32.1827
rfoot -21.7697 -5.74214
rtoes 7.60077
lfemur -10.1802 -2.65333 -16.9334
ltibia 27.4101
lfoot -16.8661 5.1397
ltoes -20.249
2768
root -2.85885 17.6663 1.72031 3.84703 2.65093 0.939123
lowerback 1.86517 -0.658488 -4.19959
upperback 0.00822354 -0.947895 2.08
thorax -0.934556 -0.451108 4.52879
lowerneck -20.7164 0.139839 -9.88541
upperneck 22.6507 2.78569 2.57455
head 10.5513 0.731827 2.97817
rclavicle -2.27608e-014 1.94809e-014
rhumerus -43.6156 -36.8423 17.2559
rradius 42.1844
rwrist 29.7241
rhand -21.8548 -9.14345
rfingers 7.12502
rthumb 4.54902 -39.0746
lclavicle -2.27608e-014 1.94809e-014
lhumerus -41.4523 34.568 -15.2961
lradius 38.7542
lwrist -11.3305
lhand -21.0327 24.9394
lfingers 7.12502
lthumb 5.3428 54.8521
rfemur -12.3205 0.645727 12.6071
rtibia 32.2308
rfoot -21.7946 -5.80087
rtoes 7.45844
lfemur -9.97338 -2.4592 -16.8713
ltibia 27.4479
lfoot -16.842 5.03836
ltoes -20.3584
2769
root -2.85543 17.6633 1.71282 3.63338 2.5796 0.996769
lowerback 2.04083 -0.669932 -4.25246
upperback -0.0240032 -0.971357 2.06001
thorax -1.06325 -0.458609 4.54178
lowerneck -20.431 0.219981 -9.75557
upperneck 22.777 2.8866 2.34342
head 10.5446 0.755948 2.88647
rclavicle 9.24349e-015 -1.98785e-015
rhumerus -41.3149 -37.5723 17.2608
rradius 42.2673
rwrist 29.9559
rhand -22.0348 -9.00015
rfingers 7.12502
rthumb 4.37515 -38.935
lclavicle 9.24349e-015 -1.98785e-015
lhumerus -39.3995 35.1187 -15.559
lradius 38.9036
lwrist -11.5324
lhand -21.1061 24.9333
lfingers 7.12502
lthumb 5.27189 54.8477
rfemur -12.1533 0.749194 12.5365
rtibia 32.2705
rfoot -21.7493 -5.88922
rtoes 6.71891
lfemur -9.7766 -2.37255 -16.9548
ltibia 27.4845
lfoot -16.8193 4.97211
ltoes -20.1535
